<svg width="119" height="25" viewBox="0 0 119 25" fill="none" xmlns="http://www.w3.org/2000/svg">
<path d="M5.61626 18.4805C4.06426 18.4805 2.79226 18.1445 1.80026 17.4725C0.808264 16.8005 0.208264 15.8405 0.00026387 14.5925L2.78426 13.8725C2.89626 14.4325 3.08026 14.8725 3.33626 15.1925C3.60826 15.5125 3.93626 15.7445 4.32026 15.8885C4.72026 16.0165 5.15226 16.0805 5.61626 16.0805C6.32026 16.0805 6.84026 15.9605 7.17626 15.7205C7.51226 15.4645 7.68026 15.1525 7.68026 14.7845C7.68026 14.4165 7.52026 14.1365 7.20026 13.9445C6.88026 13.7365 6.36826 13.5685 5.66426 13.4405L4.99226 13.3205C4.16026 13.1605 3.40026 12.9445 2.71226 12.6725C2.02426 12.3845 1.47226 11.9925 1.05626 11.4965C0.640264 11.0005 0.432264 10.3605 0.432264 9.57653C0.432264 8.39253 0.864264 7.48853 1.72826 6.86453C2.59226 6.22453 3.72826 5.90453 5.13626 5.90453C6.46426 5.90453 7.56826 6.20053 8.44826 6.79253C9.32826 7.38453 9.90426 8.16053 10.1763 9.12053L7.36826 9.98453C7.24026 9.37653 6.97626 8.94453 6.57626 8.68853C6.19226 8.43253 5.71226 8.30453 5.13626 8.30453C4.56026 8.30453 4.12026 8.40853 3.81626 8.61653C3.51226 8.80853 3.36026 9.08053 3.36026 9.43253C3.36026 9.81653 3.52026 10.1045 3.84026 10.2965C4.16026 10.4725 4.59226 10.6085 5.13626 10.7045L5.80826 10.8245C6.70426 10.9845 7.51226 11.2005 8.23226 11.4725C8.96826 11.7285 9.54426 12.1045 9.96026 12.6005C10.3923 13.0805 10.6083 13.7365 10.6083 14.5685C10.6083 15.8165 10.1523 16.7845 9.24026 17.4725C8.34426 18.1445 7.13626 18.4805 5.61626 18.4805ZM12.7782 18.1445V6.24053H15.7542V7.53653H16.1862C16.3942 7.13653 16.7382 6.79253 17.2182 6.50453C17.6982 6.20053 18.3302 6.04853 19.1142 6.04853C19.9622 6.04853 20.6422 6.21653 21.1542 6.55253C21.6662 6.87253 22.0582 7.29653 22.3302 7.82453H22.7622C23.0342 7.31253 23.4182 6.88853 23.9142 6.55253C24.4102 6.21653 25.1142 6.04853 26.0262 6.04853C26.7622 6.04853 27.4262 6.20853 28.0182 6.52853C28.6262 6.83253 29.1062 7.30453 29.4582 7.94453C29.8262 8.56853 30.0102 9.36053 30.0102 10.3205V18.1445H26.9862V10.5365C26.9862 9.88053 26.8182 9.39253 26.4822 9.07253C26.1462 8.73653 25.6742 8.56853 25.0662 8.56853C24.3782 8.56853 23.8422 8.79253 23.4582 9.24053C23.0902 9.67253 22.9062 10.2965 22.9062 11.1125V18.1445H19.8822V10.5365C19.8822 9.88053 19.7142 9.39253 19.3782 9.07253C19.0422 8.73653 18.5702 8.56853 17.9622 8.56853C17.2742 8.56853 16.7382 8.79253 16.3542 9.24053C15.9862 9.67253 15.8022 10.2965 15.8022 11.1125V18.1445H12.7782ZM34.6786 18.4805C34.0386 18.4805 33.4946 18.2725 33.0466 17.8565C32.6146 17.4245 32.3986 16.8725 32.3986 16.2005C32.3986 15.5285 32.6146 14.9845 33.0466 14.5685C33.4946 14.1365 34.0386 13.9205 34.6786 13.9205C35.3346 13.9205 35.8786 14.1365 36.3106 14.5685C36.7426 14.9845 36.9586 15.5285 36.9586 16.2005C36.9586 16.8725 36.7426 17.4245 36.3106 17.8565C35.8786 18.2725 35.3346 18.4805 34.6786 18.4805ZM34.6786 10.4645C34.0386 10.4645 33.4946 10.2565 33.0466 9.84053C32.6146 9.40853 32.3986 8.85653 32.3986 8.18453C32.3986 7.51253 32.6146 6.96853 33.0466 6.55253C33.4946 6.12053 34.0386 5.90453 34.6786 5.90453C35.3346 5.90453 35.8786 6.12053 36.3106 6.55253C36.7426 6.96853 36.9586 7.51253 36.9586 8.18453C36.9586 8.85653 36.7426 9.40853 36.3106 9.84053C35.8786 10.2565 35.3346 10.4645 34.6786 10.4645ZM37.771 24.0485V21.4565C39.531 21.4565 40.843 20.9525 41.707 19.9445C42.571 18.9525 43.003 17.3925 43.003 15.2645V8.78453C43.003 6.65653 42.571 5.09653 41.707 4.10453C40.843 3.09653 39.531 2.59253 37.771 2.59253V0.000530243C39.563 0.000530243 41.059 0.312531 42.259 0.936531C43.475 1.56053 44.387 2.51253 44.995 3.79253C45.619 5.07253 45.931 6.70453 45.931 8.68853V15.3605C45.931 17.3445 45.619 18.9765 44.995 20.2565C44.387 21.5365 43.475 22.4885 42.259 23.1125C41.059 23.7365 39.563 24.0485 37.771 24.0485ZM53.7466 18.4805C52.5626 18.4805 51.5146 18.2325 50.6026 17.7365C49.7066 17.2245 49.0026 16.5125 48.4906 15.6005C47.9946 14.6725 47.7466 13.5845 47.7466 12.3365V12.0485C47.7466 10.8005 47.9946 9.72053 48.4906 8.80853C48.9866 7.88053 49.6826 7.16853 50.5786 6.67253C51.4746 6.16053 52.5146 5.90453 53.6986 5.90453C54.8666 5.90453 55.8826 6.16853 56.7466 6.69653C57.6106 7.20853 58.2826 7.92853 58.7626 8.85653C59.2426 9.76853 59.4826 10.8325 59.4826 12.0485V13.0805H50.8186C50.8506 13.8965 51.1546 14.5605 51.7306 15.0725C52.3066 15.5845 53.0106 15.8405 53.8426 15.8405C54.6906 15.8405 55.3146 15.6565 55.7146 15.2885C56.1146 14.9205 56.4186 14.5125 56.6266 14.0645L59.0986 15.3605C58.8746 15.7765 58.5466 16.2325 58.1146 16.7285C57.6986 17.2085 57.1386 17.6245 56.4346 17.9765C55.7306 18.3125 54.8346 18.4805 53.7466 18.4805ZM50.8426 10.8245H56.4106C56.3466 10.1365 56.0666 9.58453 55.5706 9.16853C55.0906 8.75253 54.4586 8.54453 53.6746 8.54453C52.8586 8.54453 52.2106 8.75253 51.7306 9.16853C51.2506 9.58453 50.9546 10.1365 50.8426 10.8245ZM66.6381 18.4805C65.0861 18.4805 63.8141 18.1445 62.8221 17.4725C61.8301 16.8005 61.2301 15.8405 61.0221 14.5925L63.8061 13.8725C63.9181 14.4325 64.1021 14.8725 64.3581 15.1925C64.6301 15.5125 64.9581 15.7445 65.3421 15.8885C65.7421 16.0165 66.1741 16.0805 66.6381 16.0805C67.3421 16.0805 67.8621 15.9605 68.1981 15.7205C68.5341 15.4645 68.7021 15.1525 68.7021 14.7845C68.7021 14.4165 68.5421 14.1365 68.2221 13.9445C67.9021 13.7365 67.3901 13.5685 66.6861 13.4405L66.0141 13.3205C65.1821 13.1605 64.4221 12.9445 63.7341 12.6725C63.0461 12.3845 62.4941 11.9925 62.0781 11.4965C61.6621 11.0005 61.4541 10.3605 61.4541 9.57653C61.4541 8.39253 61.8861 7.48853 62.7501 6.86453C63.6141 6.22453 64.7501 5.90453 66.1581 5.90453C67.4861 5.90453 68.5901 6.20053 69.4701 6.79253C70.3501 7.38453 70.9261 8.16053 71.1981 9.12053L68.3901 9.98453C68.2621 9.37653 67.9981 8.94453 67.5981 8.68853C67.2141 8.43253 66.7341 8.30453 66.1581 8.30453C65.5821 8.30453 65.1421 8.40853 64.8381 8.61653C64.5341 8.80853 64.3821 9.08053 64.3821 9.43253C64.3821 9.81653 64.5421 10.1045 64.8621 10.2965C65.1821 10.4725 65.6141 10.6085 66.1581 10.7045L66.8301 10.8245C67.7261 10.9845 68.5341 11.2005 69.2541 11.4725C69.9901 11.7285 70.5661 12.1045 70.9821 12.6005C71.4141 13.0805 71.6301 13.7365 71.6301 14.5685C71.6301 15.8165 71.1741 16.7845 70.2621 17.4725C69.3661 18.1445 68.1581 18.4805 66.6381 18.4805ZM74.7601 18.1445L73.0801 6.24053H76.0801L77.1361 16.1045H77.5681L79.1041 6.24053H83.9521L85.4881 16.1045H85.9201L86.9761 6.24053H89.9761L88.2961 18.1445H83.2801L81.7441 8.28053H81.3121L79.7761 18.1445H74.7601ZM95.8364 18.4805C94.9884 18.4805 94.2284 18.3365 93.5564 18.0485C92.8844 17.7445 92.3484 17.3125 91.9484 16.7525C91.5644 16.1765 91.3724 15.4805 91.3724 14.6645C91.3724 13.8485 91.5644 13.1685 91.9484 12.6245C92.3484 12.0645 92.8924 11.6485 93.5804 11.3765C94.2844 11.0885 95.0844 10.9445 95.9804 10.9445H99.2444V10.2725C99.2444 9.71253 99.0684 9.25653 98.7164 8.90453C98.3644 8.53653 97.8044 8.35253 97.0364 8.35253C96.2844 8.35253 95.7244 8.52853 95.3564 8.88053C94.9884 9.21653 94.7484 9.65653 94.6364 10.2005L91.8524 9.26453C92.0444 8.65653 92.3484 8.10453 92.7644 7.60853C93.1964 7.09653 93.7644 6.68853 94.4684 6.38453C95.1884 6.06453 96.0604 5.90453 97.0844 5.90453C98.6524 5.90453 99.8924 6.29653 100.804 7.08053C101.716 7.86453 102.172 9.00053 102.172 10.4885V14.9285C102.172 15.4085 102.396 15.6485 102.844 15.6485H103.804V18.1445H101.788C101.196 18.1445 100.708 18.0005 100.324 17.7125C99.9404 17.4245 99.7484 17.0405 99.7484 16.5605V16.5365H99.2924C99.2284 16.7285 99.0844 16.9845 98.8604 17.3045C98.6364 17.6085 98.2844 17.8805 97.8044 18.1205C97.3244 18.3605 96.6684 18.4805 95.8364 18.4805ZM96.3644 16.0325C97.2124 16.0325 97.9004 15.8005 98.4284 15.3365C98.9724 14.8565 99.2444 14.2245 99.2444 13.4405V13.2005H96.1964C95.6364 13.2005 95.1964 13.3205 94.8764 13.5605C94.5564 13.8005 94.3964 14.1365 94.3964 14.5685C94.3964 15.0005 94.5644 15.3525 94.9004 15.6245C95.2364 15.8965 95.7244 16.0325 96.3644 16.0325ZM105.535 22.9445V6.24053H108.511V7.68053H108.943C109.215 7.21653 109.639 6.80853 110.215 6.45653C110.791 6.08853 111.615 5.90453 112.687 5.90453C113.647 5.90453 114.535 6.14453 115.351 6.62453C116.167 7.08853 116.823 7.77653 117.319 8.68853C117.815 9.60053 118.063 10.7045 118.063 12.0005V12.3845C118.063 13.6805 117.815 14.7845 117.319 15.6965C116.823 16.6085 116.167 17.3045 115.351 17.7845C114.535 18.2485 113.647 18.4805 112.687 18.4805C111.967 18.4805 111.359 18.3925 110.863 18.2165C110.383 18.0565 109.991 17.8485 109.687 17.5925C109.399 17.3205 109.167 17.0485 108.991 16.7765H108.559V22.9445H105.535ZM111.775 15.8405C112.719 15.8405 113.495 15.5445 114.103 14.9525C114.727 14.3445 115.039 13.4645 115.039 12.3125V12.0725C115.039 10.9205 114.727 10.0485 114.103 9.45653C113.479 8.84853 112.703 8.54453 111.775 8.54453C110.847 8.54453 110.071 8.84853 109.447 9.45653C108.823 10.0485 108.511 10.9205 108.511 12.0725V12.3125C108.511 13.4645 108.823 14.3445 109.447 14.9525C110.071 15.5445 110.847 15.8405 111.775 15.8405Z" fill="#17193D"/>
</svg>
