<svg width="88" height="88" viewBox="0 0 88 88" fill="none" xmlns="http://www.w3.org/2000/svg">
<rect x="0.5" y="0.5" width="87" height="87" rx="43.5" fill="url(#paint0_linear_4893_13358)"/>
<rect x="0.5" y="0.5" width="87" height="87" rx="43.5" stroke="url(#paint1_linear_4893_13358)"/>
<g filter="url(#filter0_d_4893_13358)">
<rect x="16" y="16" width="56" height="56" rx="28" fill="white"/>
<rect x="16.5" y="16.5" width="55" height="55" rx="27.5" stroke="#E2E4E9"/>
<rect width="20" height="29.4737" transform="matrix(0 1 -1 0 58.7363 34)" fill="white"/>
<path d="M36.1011 38.5539C36.1011 37.7679 36.3565 37.0999 36.8674 36.5497C37.3979 36.0192 38.0758 35.7539 38.9011 35.7539C39.7263 35.7539 40.3944 36.0192 40.9053 36.5497C41.4358 37.0999 41.7011 37.7679 41.7011 38.5539C41.7011 39.3595 41.4358 40.0276 40.9053 40.5581C40.3944 41.0886 39.7263 41.3539 38.9011 41.3539C38.0758 41.3539 37.3979 41.0886 36.8674 40.5581C36.3565 40.0276 36.1011 39.3595 36.1011 38.5539ZM45.9453 38.5539C45.9453 37.7679 46.2007 37.0999 46.7116 36.5497C47.2421 36.0192 47.92 35.7539 48.7453 35.7539C49.5705 35.7539 50.2386 36.0192 50.7495 36.5497C51.28 37.0999 51.5453 37.7679 51.5453 38.5539C51.5453 39.3595 51.28 40.0276 50.7495 40.5581C50.2386 41.0886 49.5705 41.3539 48.7453 41.3539C47.92 41.3539 47.2421 41.0886 46.7116 40.5581C46.2007 40.0276 45.9453 39.3595 45.9453 38.5539Z" fill="#17193D"/>
<path d="M29 42.3516H32.1832C32.1832 44.513 32.8021 46.1243 34.04 47.1853C35.2582 48.2464 37.174 48.7769 39.7874 48.7769H47.7453C50.3586 48.7769 52.2744 48.2464 53.4926 47.1853C54.7305 46.1243 55.3495 44.513 55.3495 42.3516H58.5326C58.5326 44.5523 58.1495 46.3895 57.3832 47.8632C56.6168 49.3566 55.4477 50.4766 53.8758 51.2232C52.3039 51.9895 50.2997 52.3727 47.8632 52.3727H39.6695C37.233 52.3727 35.2288 51.9895 33.6568 51.2232C32.0849 50.4766 30.9158 49.3566 30.1495 47.8632C29.3832 46.3895 29 44.5523 29 42.3516Z" fill="#17193D"/>
<rect width="29.4737" height="0.263158" transform="translate(29.2617 34)" fill="white"/>
</g>
<defs>
<filter id="filter0_d_4893_13358" x="12" y="14" width="64" height="64" filterUnits="userSpaceOnUse" color-interpolation-filters="sRGB">
<feFlood flood-opacity="0" result="BackgroundImageFix"/>
<feColorMatrix in="SourceAlpha" type="matrix" values="0 0 0 0 0 0 0 0 0 0 0 0 0 0 0 0 0 0 127 0" result="hardAlpha"/>
<feOffset dy="2"/>
<feGaussianBlur stdDeviation="2"/>
<feColorMatrix type="matrix" values="0 0 0 0 0.105882 0 0 0 0 0.109804 0 0 0 0 0.113725 0 0 0 0.04 0"/>
<feBlend mode="normal" in2="BackgroundImageFix" result="effect1_dropShadow_4893_13358"/>
<feBlend mode="normal" in="SourceGraphic" in2="effect1_dropShadow_4893_13358" result="shape"/>
</filter>
<linearGradient id="paint0_linear_4893_13358" x1="44" y1="0" x2="44" y2="88" gradientUnits="userSpaceOnUse">
<stop stop-color="#E4E5E7" stop-opacity="0.48"/>
<stop offset="1" stop-color="#F7F8F8" stop-opacity="0"/>
<stop offset="1" stop-color="#E4E5E7" stop-opacity="0"/>
</linearGradient>
<linearGradient id="paint1_linear_4893_13358" x1="44" y1="0" x2="44" y2="88" gradientUnits="userSpaceOnUse">
<stop stop-color="#E4E5E7"/>
<stop offset="0.765625" stop-color="#E4E5E7" stop-opacity="0"/>
</linearGradient>
</defs>
</svg>
